<mxfile host="Electron" agent="Mozilla/5.0 (Windows NT 10.0; Win64; x64) AppleWebKit/537.36 (KHTML, like Gecko) draw.io/26.2.15 Chrome/134.0.6998.205 Electron/35.2.1 Safari/537.36" version="26.2.15">
  <diagram name="Página-1" id="3nRPjRKQCOAM2oSx5Zl8">
    <mxGraphModel dx="3081" dy="974" grid="1" gridSize="10" guides="1" tooltips="1" connect="1" arrows="1" fold="1" page="1" pageScale="1" pageWidth="827" pageHeight="1169" math="0" shadow="0">
      <root>
        <mxCell id="0" />
        <mxCell id="1" parent="0" />
        <mxCell id="HAw1_Wct-0trtuu4_1TL-1" value="" style="group" parent="1" vertex="1" connectable="0">
          <mxGeometry x="-1621" y="256" width="270" height="90" as="geometry" />
        </mxCell>
        <mxCell id="vpVWPv_Ap4FZdGTrAKTJ-1" value="Tela de Login (index)" style="swimlane;whiteSpace=wrap;html=1;startSize=23;container=1;" parent="HAw1_Wct-0trtuu4_1TL-1" vertex="1">
          <mxGeometry width="270" height="90" as="geometry">
            <mxRectangle x="320" y="260" width="140" height="30" as="alternateBounds" />
          </mxGeometry>
        </mxCell>
        <mxCell id="HAw1_Wct-0trtuu4_1TL-2" value="" style="group" parent="1" vertex="1" connectable="0">
          <mxGeometry x="-343" y="800" width="220" height="90" as="geometry" />
        </mxCell>
        <mxCell id="vpVWPv_Ap4FZdGTrAKTJ-3" value="Tela de Cadastro de Componente" style="swimlane;whiteSpace=wrap;html=1;startSize=23;" parent="HAw1_Wct-0trtuu4_1TL-2" vertex="1">
          <mxGeometry width="220" height="90" as="geometry">
            <mxRectangle x="320" y="260" width="140" height="30" as="alternateBounds" />
          </mxGeometry>
        </mxCell>
        <mxCell id="vpVWPv_Ap4FZdGTrAKTJ-4" value="&lt;div style=&quot;line-height: 140%;&quot;&gt;&lt;div&gt;Permissão de acesso:&lt;/div&gt;&lt;div&gt;- Usr Administrador;&lt;br&gt;&lt;/div&gt;- Usr Colaborador.&lt;/div&gt;" style="text;html=1;align=left;verticalAlign=middle;resizable=0;points=[];autosize=1;strokeColor=none;fillColor=none;" parent="HAw1_Wct-0trtuu4_1TL-2" vertex="1">
          <mxGeometry x="10" y="24" width="140" height="60" as="geometry" />
        </mxCell>
        <mxCell id="HAw1_Wct-0trtuu4_1TL-3" value="" style="group" parent="1" vertex="1" connectable="0">
          <mxGeometry x="-1621" width="288" height="150" as="geometry" />
        </mxCell>
        <mxCell id="vpVWPv_Ap4FZdGTrAKTJ-7" value="&lt;div&gt;Tela de Cadastro de Usuário: Cliente&lt;br&gt;&lt;/div&gt;" style="swimlane;whiteSpace=wrap;html=1;startSize=30;" parent="HAw1_Wct-0trtuu4_1TL-3" vertex="1">
          <mxGeometry width="270" height="150" as="geometry">
            <mxRectangle x="320" y="260" width="140" height="30" as="alternateBounds" />
          </mxGeometry>
        </mxCell>
        <mxCell id="vpVWPv_Ap4FZdGTrAKTJ-8" value="&lt;div style=&quot;line-height: 140%;&quot;&gt;&lt;div align=&quot;left&quot;&gt;Acesso público;&lt;/div&gt;&lt;div align=&quot;left&quot;&gt;&lt;br&gt;&lt;/div&gt;&lt;div align=&quot;left&quot;&gt;Cadastro realizado ANTES de logar no sistema&lt;/div&gt;&lt;div align=&quot;left&quot;&gt;(cadastro padrão);&lt;/div&gt;&lt;div align=&quot;left&quot;&gt;&lt;br&gt;&lt;/div&gt;&lt;div align=&quot;left&quot;&gt;É atribuído o tipo &quot;Cliente&quot; ao usuário.&lt;/div&gt;&lt;/div&gt;" style="text;html=1;align=left;verticalAlign=middle;resizable=0;points=[];autosize=1;strokeColor=none;fillColor=none;" parent="HAw1_Wct-0trtuu4_1TL-3" vertex="1">
          <mxGeometry x="8" y="35" width="280" height="110" as="geometry" />
        </mxCell>
        <mxCell id="HAw1_Wct-0trtuu4_1TL-4" value="" style="group" parent="1" vertex="1" connectable="0">
          <mxGeometry x="-894" y="800" width="270" height="130" as="geometry" />
        </mxCell>
        <mxCell id="vpVWPv_Ap4FZdGTrAKTJ-19" value="&lt;div&gt;Tela de Listagem de Usuários&lt;br&gt;&lt;/div&gt;" style="swimlane;whiteSpace=wrap;html=1;startSize=30;" parent="HAw1_Wct-0trtuu4_1TL-4" vertex="1">
          <mxGeometry width="270" height="130" as="geometry">
            <mxRectangle width="140" height="30" as="alternateBounds" />
          </mxGeometry>
        </mxCell>
        <mxCell id="vpVWPv_Ap4FZdGTrAKTJ-20" value="&lt;div style=&quot;line-height: 140%;&quot;&gt;&lt;div align=&quot;left&quot;&gt;Permissão de acesso:&lt;/div&gt;&lt;div align=&quot;left&quot;&gt;- Usr Administrador.&lt;/div&gt;&lt;div align=&quot;left&quot;&gt;&lt;br&gt;&lt;/div&gt;Incluir um botão nesta tela para direcionar ao&lt;/div&gt;&lt;div style=&quot;line-height: 140%;&quot;&gt;Cadastro de Usuário.&lt;/div&gt;" style="text;html=1;align=left;verticalAlign=middle;resizable=0;points=[];autosize=1;strokeColor=none;fillColor=none;" parent="vpVWPv_Ap4FZdGTrAKTJ-19" vertex="1">
          <mxGeometry x="8" y="29.000000000000004" width="260" height="100" as="geometry" />
        </mxCell>
        <mxCell id="HAw1_Wct-0trtuu4_1TL-5" value="" style="group" parent="1" vertex="1" connectable="0">
          <mxGeometry x="147" y="800" width="200" height="90" as="geometry" />
        </mxCell>
        <mxCell id="vpVWPv_Ap4FZdGTrAKTJ-5" value="Tela de Cadastro de Produto" style="swimlane;whiteSpace=wrap;html=1;startSize=23;" parent="HAw1_Wct-0trtuu4_1TL-5" vertex="1">
          <mxGeometry width="200" height="90" as="geometry">
            <mxRectangle x="320" y="260" width="140" height="30" as="alternateBounds" />
          </mxGeometry>
        </mxCell>
        <mxCell id="vpVWPv_Ap4FZdGTrAKTJ-6" value="&lt;div style=&quot;line-height: 140%;&quot;&gt;&lt;div&gt;Permissão de acesso:&lt;/div&gt;&lt;div&gt;- Usr Administrador;&lt;br&gt;&lt;/div&gt;- Usr Colaborador.&lt;/div&gt;" style="text;html=1;align=left;verticalAlign=middle;resizable=0;points=[];autosize=1;strokeColor=none;fillColor=none;" parent="HAw1_Wct-0trtuu4_1TL-5" vertex="1">
          <mxGeometry x="10" y="25" width="140" height="60" as="geometry" />
        </mxCell>
        <mxCell id="HAw1_Wct-0trtuu4_1TL-6" value="" style="group" parent="1" vertex="1" connectable="0">
          <mxGeometry x="650" y="393" width="170" height="80" as="geometry" />
        </mxCell>
        <mxCell id="vpVWPv_Ap4FZdGTrAKTJ-9" value="Tela de Enviar Feedback" style="swimlane;whiteSpace=wrap;html=1;startSize=23;container=0;" parent="HAw1_Wct-0trtuu4_1TL-6" vertex="1">
          <mxGeometry width="170" height="80" as="geometry">
            <mxRectangle x="320" y="260" width="140" height="30" as="alternateBounds" />
          </mxGeometry>
        </mxCell>
        <mxCell id="vpVWPv_Ap4FZdGTrAKTJ-10" value="&lt;div style=&quot;line-height: 140%;&quot;&gt;&lt;div align=&quot;left&quot;&gt;&lt;div&gt;Permissão de acesso:&lt;/div&gt;&lt;div&gt;- Usr Cliente.&lt;/div&gt;&lt;/div&gt;&lt;/div&gt;" style="text;html=1;align=left;verticalAlign=middle;resizable=0;points=[];autosize=1;strokeColor=none;fillColor=none;container=0;" parent="HAw1_Wct-0trtuu4_1TL-6" vertex="1">
          <mxGeometry x="10" y="25" width="140" height="50" as="geometry" />
        </mxCell>
        <mxCell id="HAw1_Wct-0trtuu4_1TL-7" value="" style="group" parent="1" vertex="1" connectable="0">
          <mxGeometry x="-593" y="800" width="220" height="90" as="geometry" />
        </mxCell>
        <mxCell id="vpVWPv_Ap4FZdGTrAKTJ-17" value="Tela de Cadastro de Fornecedor" style="swimlane;whiteSpace=wrap;html=1;startSize=23;container=0;" parent="HAw1_Wct-0trtuu4_1TL-7" vertex="1">
          <mxGeometry width="220" height="90" as="geometry">
            <mxRectangle x="320" y="260" width="140" height="30" as="alternateBounds" />
          </mxGeometry>
        </mxCell>
        <mxCell id="vpVWPv_Ap4FZdGTrAKTJ-18" value="&lt;div style=&quot;line-height: 140%;&quot;&gt;&lt;div&gt;Permissão de acesso:&lt;/div&gt;&lt;div&gt;- Usr Administrador;&lt;br&gt;&lt;/div&gt;&lt;div&gt;- Usr Colaborador.&lt;/div&gt;&lt;/div&gt;" style="text;html=1;align=left;verticalAlign=middle;resizable=0;points=[];autosize=1;strokeColor=none;fillColor=none;container=0;" parent="HAw1_Wct-0trtuu4_1TL-7" vertex="1">
          <mxGeometry x="10" y="26" width="140" height="60" as="geometry" />
        </mxCell>
        <mxCell id="HAw1_Wct-0trtuu4_1TL-9" value="" style="group" parent="1" vertex="1" connectable="0">
          <mxGeometry x="-1300" y="573" width="240" height="287" as="geometry" />
        </mxCell>
        <mxCell id="vpVWPv_Ap4FZdGTrAKTJ-27" value="&lt;div&gt;Tela de Perfil&lt;br&gt;&lt;/div&gt;" style="swimlane;whiteSpace=wrap;html=1;startSize=30;container=0;" parent="HAw1_Wct-0trtuu4_1TL-9" vertex="1">
          <mxGeometry y="-50" width="240" height="232.08310469314068" as="geometry">
            <mxRectangle x="320" y="260" width="140" height="30" as="alternateBounds" />
          </mxGeometry>
        </mxCell>
        <mxCell id="vpVWPv_Ap4FZdGTrAKTJ-28" value="&lt;div style=&quot;line-height: 140%;&quot;&gt;&lt;div&gt;&lt;div align=&quot;left&quot;&gt;&lt;div align=&quot;left&quot;&gt;- Todos os Usr poderão acessar seus&lt;/div&gt;&lt;div align=&quot;left&quot;&gt;respectivos dados cadastrados.&lt;/div&gt;&lt;div align=&quot;left&quot;&gt;&lt;br&gt;&lt;/div&gt;&lt;div align=&quot;left&quot;&gt;&lt;div align=&quot;left&quot;&gt;Será a tela &quot;inicial&quot; para os Usr Cliente.&lt;/div&gt;&lt;/div&gt;&lt;/div&gt;&lt;/div&gt;&lt;div&gt;&lt;br&gt;&lt;/div&gt;&lt;div&gt;Mostra os dados de perfil de cada Usr&lt;/div&gt;&lt;div&gt;e inclui:&lt;br&gt;&lt;/div&gt;&lt;div&gt;&lt;div&gt;+ Botão de &quot;Excluir conta&quot;;&lt;/div&gt;&lt;div&gt;+ Botão de &quot;Alterar dados&quot;;&lt;/div&gt;+ Botão de &quot;Logout&quot; (opcional, pois pode&lt;/div&gt;&lt;div&gt;estar na barra de navegação).&lt;/div&gt;&lt;/div&gt;" style="text;html=1;align=left;verticalAlign=middle;resizable=0;points=[];autosize=1;strokeColor=none;fillColor=none;container=0;" parent="vpVWPv_Ap4FZdGTrAKTJ-27" vertex="1">
          <mxGeometry x="8.359414437152953" y="28.862888086642485" width="240" height="200" as="geometry" />
        </mxCell>
        <mxCell id="HAw1_Wct-0trtuu4_1TL-11" value="" style="group" parent="1" vertex="1" connectable="0">
          <mxGeometry x="-1019" y="524" width="228" height="140" as="geometry" />
        </mxCell>
        <mxCell id="vpVWPv_Ap4FZdGTrAKTJ-25" value="&lt;div&gt;Tela de Principais Relatórios /&lt;/div&gt;&lt;div&gt;Acesso a Relatórios&lt;br&gt;&lt;/div&gt;" style="swimlane;whiteSpace=wrap;html=1;startSize=40;container=0;" parent="HAw1_Wct-0trtuu4_1TL-11" vertex="1">
          <mxGeometry y="-1" width="210" height="140" as="geometry">
            <mxRectangle x="320" y="260" width="140" height="30" as="alternateBounds" />
          </mxGeometry>
        </mxCell>
        <mxCell id="vpVWPv_Ap4FZdGTrAKTJ-26" value="&lt;div style=&quot;line-height: 140%;&quot;&gt;&lt;div align=&quot;left&quot;&gt;Permissão de acesso:&lt;/div&gt;&lt;div align=&quot;left&quot;&gt;- Usr Administrador;&lt;/div&gt;&lt;div align=&quot;left&quot;&gt;- Usr Colaborador.&lt;/div&gt;&lt;div align=&quot;left&quot;&gt;&lt;br&gt;&lt;/div&gt;&lt;div align=&quot;left&quot;&gt;Será a tela &quot;inicial&quot; desses usuários.&lt;br&gt;&lt;/div&gt;&lt;/div&gt;" style="text;html=1;align=left;verticalAlign=middle;resizable=0;points=[];autosize=1;strokeColor=none;fillColor=none;container=0;" parent="HAw1_Wct-0trtuu4_1TL-11" vertex="1">
          <mxGeometry x="8" y="39" width="220" height="100" as="geometry" />
        </mxCell>
        <mxCell id="HAw1_Wct-0trtuu4_1TL-12" value="" style="group" parent="1" vertex="1" connectable="0">
          <mxGeometry x="-1194" y="211" width="290" height="280" as="geometry" />
        </mxCell>
        <mxCell id="dTHvuC9JS5FpkCkIKy4u-1" style="edgeStyle=orthogonalEdgeStyle;rounded=0;orthogonalLoop=1;jettySize=auto;html=1;exitX=1;exitY=0.25;exitDx=0;exitDy=0;" parent="HAw1_Wct-0trtuu4_1TL-12" source="vpVWPv_Ap4FZdGTrAKTJ-13" edge="1">
          <mxGeometry relative="1" as="geometry">
            <mxPoint x="574" y="45.238095238095184" as="targetPoint" />
          </mxGeometry>
        </mxCell>
        <mxCell id="vpVWPv_Ap4FZdGTrAKTJ-13" value="&lt;div&gt;Tela de &quot;Boas-Vindas&quot;&lt;/div&gt;" style="swimlane;whiteSpace=wrap;html=1;startSize=23;" parent="HAw1_Wct-0trtuu4_1TL-12" vertex="1">
          <mxGeometry width="290" height="180" as="geometry">
            <mxRectangle x="320" y="260" width="140" height="30" as="alternateBounds" />
          </mxGeometry>
        </mxCell>
        <mxCell id="vpVWPv_Ap4FZdGTrAKTJ-14" value="&lt;div style=&quot;line-height: 140%;&quot;&gt;&lt;div&gt;Tela padrão após login com sucesso no sistema&lt;/div&gt;&lt;div&gt;(tela &quot;inicial&quot;).&lt;/div&gt;&lt;div&gt;&lt;br&gt;&lt;/div&gt;&lt;div&gt;&lt;b&gt;Para Usr Administrador + Usr Colaborador:&lt;/b&gt;&lt;/div&gt;&lt;div&gt;- Cai na Tela de Principais Relatórios.&lt;/div&gt;&lt;div&gt;&lt;br&gt;&lt;/div&gt;&lt;div&gt;&lt;b&gt;Para Usr Cliente:&lt;/b&gt;&lt;/div&gt;&lt;div&gt;- Cai na Tela de Perfil.&lt;/div&gt;&lt;/div&gt;" style="text;html=1;align=left;verticalAlign=middle;resizable=0;points=[];autosize=1;strokeColor=none;fillColor=none;" parent="vpVWPv_Ap4FZdGTrAKTJ-13" vertex="1">
          <mxGeometry x="10" y="25" width="280" height="150" as="geometry" />
        </mxCell>
        <mxCell id="HAw1_Wct-0trtuu4_1TL-13" value="" style="group" parent="1" vertex="1" connectable="0">
          <mxGeometry x="-93" y="800" width="210" height="140" as="geometry" />
        </mxCell>
        <mxCell id="vpVWPv_Ap4FZdGTrAKTJ-11" value="Tela de Cadastro de Produção" style="swimlane;whiteSpace=wrap;html=1;startSize=23;" parent="HAw1_Wct-0trtuu4_1TL-13" vertex="1">
          <mxGeometry width="210" height="140" as="geometry">
            <mxRectangle x="320" y="260" width="140" height="30" as="alternateBounds" />
          </mxGeometry>
        </mxCell>
        <mxCell id="vpVWPv_Ap4FZdGTrAKTJ-12" value="&lt;div style=&quot;line-height: 140%;&quot;&gt;&lt;div&gt;Cadastra Linha de Produção&lt;/div&gt;&lt;div&gt;+ Etapas de Produção.&lt;/div&gt;&lt;div&gt;&lt;br&gt;&lt;/div&gt;&lt;div&gt;&lt;div&gt;Permissão de acesso:&lt;/div&gt;&lt;div&gt;- Usr Administrador;&lt;br&gt;&lt;/div&gt;- Usr Colaborador.&lt;/div&gt;&lt;/div&gt;" style="text;html=1;align=left;verticalAlign=middle;resizable=0;points=[];autosize=1;strokeColor=none;fillColor=none;" parent="HAw1_Wct-0trtuu4_1TL-13" vertex="1">
          <mxGeometry x="10" y="27" width="180" height="110" as="geometry" />
        </mxCell>
        <mxCell id="HAw1_Wct-0trtuu4_1TL-16" value="" style="group" parent="1" vertex="1" connectable="0">
          <mxGeometry x="-1577" y="440" width="200" height="80" as="geometry" />
        </mxCell>
        <mxCell id="vpVWPv_Ap4FZdGTrAKTJ-15" value="Tela de Recuperação de Senha" style="swimlane;whiteSpace=wrap;html=1;startSize=23;container=0;" parent="HAw1_Wct-0trtuu4_1TL-16" vertex="1">
          <mxGeometry width="200" height="80" as="geometry">
            <mxRectangle x="320" y="260" width="140" height="30" as="alternateBounds" />
          </mxGeometry>
        </mxCell>
        <mxCell id="vpVWPv_Ap4FZdGTrAKTJ-16" value="&lt;div style=&quot;line-height: 140%;&quot;&gt;Acesso público.&lt;/div&gt;" style="text;html=1;align=left;verticalAlign=middle;resizable=0;points=[];autosize=1;strokeColor=none;fillColor=none;container=0;" parent="HAw1_Wct-0trtuu4_1TL-16" vertex="1">
          <mxGeometry x="10" y="33.33333333333333" width="110" height="30" as="geometry" />
        </mxCell>
        <mxCell id="HAw1_Wct-0trtuu4_1TL-18" style="edgeStyle=orthogonalEdgeStyle;rounded=0;orthogonalLoop=1;jettySize=auto;html=1;exitX=0.25;exitY=1;exitDx=0;exitDy=0;entryX=0.25;entryY=0;entryDx=0;entryDy=0;startArrow=classic;startFill=0;endArrow=none;strokeColor=default;" parent="1" source="vpVWPv_Ap4FZdGTrAKTJ-7" target="vpVWPv_Ap4FZdGTrAKTJ-1" edge="1">
          <mxGeometry relative="1" as="geometry" />
        </mxCell>
        <mxCell id="HAw1_Wct-0trtuu4_1TL-19" style="edgeStyle=orthogonalEdgeStyle;rounded=0;orthogonalLoop=1;jettySize=auto;html=1;exitX=0.75;exitY=1;exitDx=0;exitDy=0;entryX=0.75;entryY=0;entryDx=0;entryDy=0;" parent="1" source="vpVWPv_Ap4FZdGTrAKTJ-7" target="vpVWPv_Ap4FZdGTrAKTJ-1" edge="1">
          <mxGeometry relative="1" as="geometry" />
        </mxCell>
        <mxCell id="HAw1_Wct-0trtuu4_1TL-20" value="&lt;div&gt;Pode direcionar&lt;/div&gt;&lt;div&gt;para o Cadastro&lt;/div&gt;" style="text;html=1;align=center;verticalAlign=middle;whiteSpace=wrap;rounded=0;" parent="1" vertex="1">
          <mxGeometry x="-1654" y="190" width="100" height="30" as="geometry" />
        </mxCell>
        <mxCell id="HAw1_Wct-0trtuu4_1TL-21" value="&lt;div&gt;Redireciona&lt;/div&gt;&lt;div&gt;para o Login&lt;/div&gt;" style="text;html=1;align=center;verticalAlign=middle;whiteSpace=wrap;rounded=0;" parent="1" vertex="1">
          <mxGeometry x="-1414" y="190" width="80" height="30" as="geometry" />
        </mxCell>
        <mxCell id="vpVWPv_Ap4FZdGTrAKTJ-2" value="&lt;div style=&quot;line-height: 140%;&quot;&gt;&lt;div align=&quot;left&quot;&gt;Primeira tela ao abrir o sistema;&lt;/div&gt;&lt;div align=&quot;left&quot;&gt;&lt;br&gt;&lt;/div&gt;&lt;div align=&quot;left&quot;&gt;Acesso público.&lt;br&gt;&lt;/div&gt;&lt;/div&gt;" style="text;html=1;align=center;verticalAlign=middle;resizable=0;points=[];autosize=1;strokeColor=none;fillColor=none;" parent="1" vertex="1">
          <mxGeometry x="-1617" y="285" width="190" height="60" as="geometry" />
        </mxCell>
        <mxCell id="HAw1_Wct-0trtuu4_1TL-26" value="&lt;div&gt;Pode direcionar&lt;/div&gt;&lt;div&gt;para a Recuperação&lt;br&gt;&lt;/div&gt;" style="text;html=1;align=center;verticalAlign=middle;whiteSpace=wrap;rounded=0;" parent="1" vertex="1">
          <mxGeometry x="-1414" y="380" width="120" height="30" as="geometry" />
        </mxCell>
        <mxCell id="HAw1_Wct-0trtuu4_1TL-30" style="edgeStyle=orthogonalEdgeStyle;rounded=0;orthogonalLoop=1;jettySize=auto;html=1;exitDx=0;exitDy=0;entryDx=0;entryDy=0;" parent="1" source="vpVWPv_Ap4FZdGTrAKTJ-1" target="vpVWPv_Ap4FZdGTrAKTJ-13" edge="1">
          <mxGeometry relative="1" as="geometry" />
        </mxCell>
        <mxCell id="HAw1_Wct-0trtuu4_1TL-31" value="Acesso ao Sistema" style="text;html=1;align=center;verticalAlign=middle;whiteSpace=wrap;rounded=0;" parent="1" vertex="1">
          <mxGeometry x="-1347" y="300" width="140" height="30" as="geometry" />
        </mxCell>
        <mxCell id="HAw1_Wct-0trtuu4_1TL-36" value="Se for Administrador ou Colaborador,  será direcionado para" style="text;html=1;align=center;verticalAlign=middle;whiteSpace=wrap;rounded=0;" parent="1" vertex="1">
          <mxGeometry x="-911" y="460" width="120" height="50" as="geometry" />
        </mxCell>
        <mxCell id="HAw1_Wct-0trtuu4_1TL-37" value="Se for Cliente, será direcionado para" style="text;html=1;align=center;verticalAlign=middle;whiteSpace=wrap;rounded=0;" parent="1" vertex="1">
          <mxGeometry x="-1310" y="470" width="120" height="30" as="geometry" />
        </mxCell>
        <mxCell id="HAw1_Wct-0trtuu4_1TL-38" value="Ramificação da tela" style="text;html=1;align=center;verticalAlign=middle;whiteSpace=wrap;rounded=0;" parent="1" vertex="1">
          <mxGeometry x="-1109" y="447" width="120" height="30" as="geometry" />
        </mxCell>
        <mxCell id="HAw1_Wct-0trtuu4_1TL-40" value="Dentro do Sistema, o acesso à barra de navegação estará disponível nas demais telas de acesso interno, incluindo a de &quot;Boas-Vindas&quot; (inicial)" style="text;html=1;align=center;verticalAlign=middle;whiteSpace=wrap;rounded=0;" parent="1" vertex="1">
          <mxGeometry x="-839" y="170" width="160" height="85" as="geometry" />
        </mxCell>
        <mxCell id="HAw1_Wct-0trtuu4_1TL-45" value="&lt;div&gt;É possível voltar à tela inicial por meio de um botão de navegação&lt;br&gt;&lt;/div&gt;" style="text;html=1;align=center;verticalAlign=middle;whiteSpace=wrap;rounded=0;" parent="1" vertex="1">
          <mxGeometry x="-823.5" y="370" width="130" height="50" as="geometry" />
        </mxCell>
        <mxCell id="HAw1_Wct-0trtuu4_1TL-48" style="edgeStyle=orthogonalEdgeStyle;rounded=0;orthogonalLoop=1;jettySize=auto;html=1;exitX=0.5;exitY=1;exitDx=0;exitDy=0;entryX=0.5;entryY=0;entryDx=0;entryDy=0;dashed=1;endArrow=none;startFill=0;" parent="1" source="vpVWPv_Ap4FZdGTrAKTJ-13" target="vpVWPv_Ap4FZdGTrAKTJ-27" edge="1">
          <mxGeometry relative="1" as="geometry">
            <Array as="points">
              <mxPoint x="-1049" y="450" />
              <mxPoint x="-1186" y="450" />
              <mxPoint x="-1186" y="523" />
            </Array>
          </mxGeometry>
        </mxCell>
        <mxCell id="HAw1_Wct-0trtuu4_1TL-49" style="edgeStyle=orthogonalEdgeStyle;rounded=0;orthogonalLoop=1;jettySize=auto;html=1;exitX=0.5;exitY=1;exitDx=0;exitDy=0;dashed=1;endArrow=none;startFill=0;" parent="1" source="vpVWPv_Ap4FZdGTrAKTJ-13" target="vpVWPv_Ap4FZdGTrAKTJ-25" edge="1">
          <mxGeometry relative="1" as="geometry">
            <Array as="points">
              <mxPoint x="-1049" y="450" />
              <mxPoint x="-914" y="450" />
            </Array>
          </mxGeometry>
        </mxCell>
        <mxCell id="HAw1_Wct-0trtuu4_1TL-52" style="edgeStyle=orthogonalEdgeStyle;rounded=0;orthogonalLoop=1;jettySize=auto;html=1;exitX=0;exitY=0.75;exitDx=0;exitDy=0;entryX=1.002;entryY=0.862;entryDx=0;entryDy=0;entryPerimeter=0;" parent="1" source="vpVWPv_Ap4FZdGTrAKTJ-29" target="vpVWPv_Ap4FZdGTrAKTJ-14" edge="1">
          <mxGeometry relative="1" as="geometry">
            <Array as="points">
              <mxPoint x="-615" y="365" />
            </Array>
          </mxGeometry>
        </mxCell>
        <mxCell id="HAw1_Wct-0trtuu4_1TL-56" value="" style="group" parent="1" vertex="1" connectable="0">
          <mxGeometry x="-615" y="60" width="620.0232961738413" height="460.0037778500569" as="geometry" />
        </mxCell>
        <mxCell id="vpVWPv_Ap4FZdGTrAKTJ-29" value="Barra Lateral / Navbar (sempre presente)" style="swimlane;whiteSpace=wrap;html=1;startSize=30;container=0;" parent="HAw1_Wct-0trtuu4_1TL-56" vertex="1">
          <mxGeometry width="620.0232961738413" height="460.0037778500569" as="geometry">
            <mxRectangle x="320" y="260" width="140" height="30" as="alternateBounds" />
          </mxGeometry>
        </mxCell>
        <mxCell id="vpVWPv_Ap4FZdGTrAKTJ-30" value="&lt;div style=&quot;line-height: 140%;&quot;&gt;&lt;div align=&quot;left&quot;&gt;Botão de Logout - Padrão para todos os Usr.&lt;/div&gt;&lt;div align=&quot;left&quot;&gt;&lt;br&gt;&lt;/div&gt;&lt;div align=&quot;left&quot;&gt;&lt;b&gt;Botões com links de acesso - Usr Administrador:&lt;/b&gt;&lt;/div&gt;&lt;div align=&quot;left&quot;&gt;- Tela de &quot;Boas-Vindas&quot; (respectiva ao Usr);&lt;br&gt;&lt;/div&gt;&lt;div align=&quot;left&quot;&gt;- Tela com listagem de usuários cadastrados e um botão nessa tela para direcionar ao Cadastro de Usuário;&lt;br&gt;&lt;/div&gt;&lt;div align=&quot;left&quot;&gt;- Cadastro de Fornecedor (+ listagem);&lt;/div&gt;&lt;div align=&quot;left&quot;&gt;- Cadastro de Componente (+ listagem);&lt;/div&gt;&lt;div align=&quot;left&quot;&gt;- Cadastro de Linha + Etapa de Produção (+ listagem);&lt;/div&gt;&lt;div align=&quot;left&quot;&gt;- Cadastro de Produto (+ listagem);&lt;/div&gt;&lt;div align=&quot;left&quot;&gt;- Tela de Histórico de Pedidos;&lt;/div&gt;&lt;div align=&quot;left&quot;&gt;- Tela de Perfil (dados do perfil do Usr);&lt;/div&gt;&lt;div align=&quot;left&quot;&gt;- Tela de consulta de feedbacks recebidos (registros);&lt;/div&gt;&lt;div align=&quot;left&quot;&gt;- Tela de relatórios do sistema.&lt;/div&gt;&lt;div align=&quot;left&quot;&gt;&lt;br&gt;&lt;/div&gt;&lt;div align=&quot;left&quot;&gt;&lt;div align=&quot;left&quot;&gt;&lt;b&gt;Botões com links de acesso - Usr Colaborador:&lt;/b&gt;&lt;/div&gt;&lt;div align=&quot;left&quot;&gt;- Igual aos do Administrador, menos:&lt;/div&gt;&lt;div align=&quot;left&quot;&gt;&lt;span style=&quot;white-space: pre;&quot;&gt;&#x9;&lt;/span&gt;- Listagem e Cadastro de Usuários.&lt;/div&gt;&lt;div align=&quot;left&quot;&gt;&lt;br&gt;&lt;/div&gt;&lt;div align=&quot;left&quot;&gt;&lt;div align=&quot;left&quot;&gt;&lt;b&gt;Botões com links de acesso - Usr Cliente:&lt;/b&gt;&lt;/div&gt;&lt;div align=&quot;left&quot;&gt;- Tela de &quot;Boas-Vindas&quot; (respectiva ao Usr);&lt;/div&gt;&lt;div align=&quot;left&quot;&gt;- Tela de Histórico de Pedidos (realizados pelo respectivo Cliente logado) &lt;span&gt;&lt;em&gt;→ &lt;/em&gt;Nesta tela pode ter um botão para&lt;/span&gt;&lt;/div&gt;&lt;div align=&quot;left&quot;&gt;&lt;span&gt;abrir &lt;/span&gt;o Formulário de Feedback para cada pedido listado ou redirecionar para a&amp;nbsp;&lt;span style=&quot;background-color: transparent; color: light-dark(rgb(0, 0, 0), rgb(255, 255, 255));&quot;&gt;Tela de Consulta de Feedback,&lt;/span&gt;&lt;/div&gt;&lt;div align=&quot;left&quot;&gt;&lt;span style=&quot;background-color: transparent; color: light-dark(rgb(0, 0, 0), rgb(255, 255, 255));&quot;&gt;caso já tenha algum registrado para tal pedido;&lt;/span&gt;&lt;/div&gt;&lt;div align=&quot;left&quot;&gt;- Tela de Consulta de Feedback;&lt;/div&gt;&lt;div align=&quot;left&quot;&gt; - Tela de perfil (dados do perfil do Usr).&lt;/div&gt;&lt;/div&gt;&lt;/div&gt;&lt;/div&gt;" style="text;html=1;align=left;verticalAlign=middle;resizable=0;points=[];autosize=1;strokeColor=none;fillColor=none;container=0;" parent="vpVWPv_Ap4FZdGTrAKTJ-29" vertex="1">
          <mxGeometry x="10.023296173841317" y="30.00377785005692" width="610" height="430" as="geometry" />
        </mxCell>
        <mxCell id="HAw1_Wct-0trtuu4_1TL-57" style="edgeStyle=orthogonalEdgeStyle;rounded=0;orthogonalLoop=1;jettySize=auto;html=1;exitX=0.5;exitY=1;exitDx=0;exitDy=0;entryX=0.5;entryY=0;entryDx=0;entryDy=0;" parent="1" source="vpVWPv_Ap4FZdGTrAKTJ-29" target="vpVWPv_Ap4FZdGTrAKTJ-19" edge="1">
          <mxGeometry relative="1" as="geometry" />
        </mxCell>
        <mxCell id="HAw1_Wct-0trtuu4_1TL-58" style="edgeStyle=orthogonalEdgeStyle;rounded=0;orthogonalLoop=1;jettySize=auto;html=1;exitX=0.5;exitY=1;exitDx=0;exitDy=0;" parent="1" source="vpVWPv_Ap4FZdGTrAKTJ-29" target="vpVWPv_Ap4FZdGTrAKTJ-17" edge="1">
          <mxGeometry relative="1" as="geometry" />
        </mxCell>
        <mxCell id="HAw1_Wct-0trtuu4_1TL-59" style="edgeStyle=orthogonalEdgeStyle;rounded=0;orthogonalLoop=1;jettySize=auto;html=1;exitX=0.5;exitY=1;exitDx=0;exitDy=0;entryX=0.5;entryY=0;entryDx=0;entryDy=0;" parent="1" source="vpVWPv_Ap4FZdGTrAKTJ-29" target="vpVWPv_Ap4FZdGTrAKTJ-3" edge="1">
          <mxGeometry relative="1" as="geometry" />
        </mxCell>
        <mxCell id="HAw1_Wct-0trtuu4_1TL-60" style="edgeStyle=orthogonalEdgeStyle;rounded=0;orthogonalLoop=1;jettySize=auto;html=1;exitX=0.5;exitY=1;exitDx=0;exitDy=0;entryX=0.5;entryY=0;entryDx=0;entryDy=0;" parent="1" source="vpVWPv_Ap4FZdGTrAKTJ-29" target="vpVWPv_Ap4FZdGTrAKTJ-11" edge="1">
          <mxGeometry relative="1" as="geometry" />
        </mxCell>
        <mxCell id="HAw1_Wct-0trtuu4_1TL-61" style="edgeStyle=orthogonalEdgeStyle;rounded=0;orthogonalLoop=1;jettySize=auto;html=1;exitX=0.5;exitY=1;exitDx=0;exitDy=0;entryX=0.5;entryY=0;entryDx=0;entryDy=0;" parent="1" source="vpVWPv_Ap4FZdGTrAKTJ-29" target="vpVWPv_Ap4FZdGTrAKTJ-5" edge="1">
          <mxGeometry relative="1" as="geometry" />
        </mxCell>
        <mxCell id="HAw1_Wct-0trtuu4_1TL-62" value="Permite navegar entre todas as telas do Sistema" style="text;html=1;align=center;verticalAlign=middle;whiteSpace=wrap;rounded=0;" parent="1" vertex="1">
          <mxGeometry x="-304" y="575" width="144" height="30" as="geometry" />
        </mxCell>
        <mxCell id="HAw1_Wct-0trtuu4_1TL-63" style="edgeStyle=orthogonalEdgeStyle;rounded=0;orthogonalLoop=1;jettySize=auto;html=1;exitX=1;exitY=0.5;exitDx=0;exitDy=0;entryX=0;entryY=0.5;entryDx=0;entryDy=0;" parent="1" source="vpVWPv_Ap4FZdGTrAKTJ-21" target="vpVWPv_Ap4FZdGTrAKTJ-9" edge="1">
          <mxGeometry relative="1" as="geometry" />
        </mxCell>
        <mxCell id="vpVWPv_Ap4FZdGTrAKTJ-21" value="Tela de Histórico de Pedidos" style="swimlane;whiteSpace=wrap;html=1;startSize=23;container=0;" parent="1" vertex="1">
          <mxGeometry x="255" y="348" width="201" height="170" as="geometry">
            <mxRectangle x="320" y="260" width="140" height="30" as="alternateBounds" />
          </mxGeometry>
        </mxCell>
        <mxCell id="vpVWPv_Ap4FZdGTrAKTJ-22" value="&lt;div style=&quot;line-height: 140%;&quot;&gt;&lt;div&gt;Mostra os pedidos recebidos pela&lt;/div&gt;&lt;div&gt;TechSmart.&lt;/div&gt;&lt;div&gt;&lt;br&gt;&lt;/div&gt;&lt;div&gt;&lt;div&gt;Permissão de acesso:&lt;/div&gt;&lt;div&gt;- Usr Administrador;&lt;br&gt;&lt;/div&gt;- Usr Colaborador;&lt;/div&gt;&lt;div&gt;- Usr Cliente (ver somente os seus&lt;/div&gt;&lt;div&gt;próprios pedidos).&lt;br&gt;&lt;/div&gt;&lt;/div&gt;" style="text;html=1;align=left;verticalAlign=middle;resizable=0;points=[];autosize=1;strokeColor=none;fillColor=none;container=0;" parent="vpVWPv_Ap4FZdGTrAKTJ-21" vertex="1">
          <mxGeometry x="6.5" y="20" width="210" height="150" as="geometry" />
        </mxCell>
        <mxCell id="HAw1_Wct-0trtuu4_1TL-65" style="edgeStyle=orthogonalEdgeStyle;rounded=0;orthogonalLoop=1;jettySize=auto;html=1;exitX=1;exitY=0.5;exitDx=0;exitDy=0;entryX=0;entryY=0.5;entryDx=0;entryDy=0;" parent="1" source="vpVWPv_Ap4FZdGTrAKTJ-29" edge="1">
          <mxGeometry relative="1" as="geometry">
            <Array as="points">
              <mxPoint x="166" y="290" />
              <mxPoint x="166" y="150" />
            </Array>
            <mxPoint x="255" y="150" as="targetPoint" />
          </mxGeometry>
        </mxCell>
        <mxCell id="HAw1_Wct-0trtuu4_1TL-66" style="edgeStyle=orthogonalEdgeStyle;rounded=0;orthogonalLoop=1;jettySize=auto;html=1;exitX=1;exitY=0.5;exitDx=0;exitDy=0;entryX=0;entryY=0.5;entryDx=0;entryDy=0;" parent="1" source="vpVWPv_Ap4FZdGTrAKTJ-29" target="vpVWPv_Ap4FZdGTrAKTJ-21" edge="1">
          <mxGeometry relative="1" as="geometry">
            <Array as="points">
              <mxPoint x="166" y="290" />
              <mxPoint x="166" y="433" />
            </Array>
          </mxGeometry>
        </mxCell>
        <mxCell id="HAw1_Wct-0trtuu4_1TL-68" value="Se for Cliente, terá um botão para dar feedback por pedido" style="text;html=1;align=center;verticalAlign=middle;whiteSpace=wrap;rounded=0;" parent="1" vertex="1">
          <mxGeometry x="472" y="399" width="160" height="30" as="geometry" />
        </mxCell>
        <mxCell id="HAw1_Wct-0trtuu4_1TL-73" value="" style="group" parent="1" vertex="1" connectable="0">
          <mxGeometry x="-893" y="1019" width="269" height="150" as="geometry" />
        </mxCell>
        <mxCell id="HAw1_Wct-0trtuu4_1TL-74" value="&lt;div&gt;Tela de Cadastro de Usuário: Colaborador&lt;br&gt;&lt;/div&gt;" style="swimlane;whiteSpace=wrap;html=1;startSize=30;" parent="HAw1_Wct-0trtuu4_1TL-73" vertex="1">
          <mxGeometry width="268" height="150" as="geometry">
            <mxRectangle width="140" height="30" as="alternateBounds" />
          </mxGeometry>
        </mxCell>
        <mxCell id="HAw1_Wct-0trtuu4_1TL-75" value="&lt;div style=&quot;line-height: 140%;&quot;&gt;&lt;div align=&quot;left&quot;&gt;Permissão de acesso:&lt;/div&gt;&lt;div align=&quot;left&quot;&gt;- Usr Administrador.&lt;/div&gt;&lt;div align=&quot;left&quot;&gt;&lt;br&gt;&lt;/div&gt;&lt;div align=&quot;left&quot;&gt;Cadastro realizado APÓS logar no sistema;&lt;/div&gt;&lt;div align=&quot;left&quot;&gt;&lt;br&gt;&lt;/div&gt;&lt;div align=&quot;left&quot;&gt;É atribuído o tipo &quot;Colaborador&quot; ao usuário.&lt;/div&gt;&lt;/div&gt;" style="text;html=1;align=left;verticalAlign=middle;resizable=0;points=[];autosize=1;strokeColor=none;fillColor=none;" parent="HAw1_Wct-0trtuu4_1TL-73" vertex="1">
          <mxGeometry x="9" y="35" width="260" height="110" as="geometry" />
        </mxCell>
        <mxCell id="HAw1_Wct-0trtuu4_1TL-76" style="edgeStyle=orthogonalEdgeStyle;rounded=0;orthogonalLoop=1;jettySize=auto;html=1;exitX=0.5;exitY=1;exitDx=0;exitDy=0;entryX=0.5;entryY=0;entryDx=0;entryDy=0;" parent="1" source="vpVWPv_Ap4FZdGTrAKTJ-19" target="HAw1_Wct-0trtuu4_1TL-74" edge="1">
          <mxGeometry relative="1" as="geometry" />
        </mxCell>
        <mxCell id="HAw1_Wct-0trtuu4_1TL-77" value="Permite navegar entre todas as telas do Sistema" style="text;html=1;align=center;verticalAlign=middle;whiteSpace=wrap;rounded=0;" parent="1" vertex="1">
          <mxGeometry x="10.019999999999982" y="255" width="144" height="30" as="geometry" />
        </mxCell>
        <mxCell id="WjvY0nWv-t7K2aDvegpH-1" style="edgeStyle=orthogonalEdgeStyle;rounded=0;orthogonalLoop=1;jettySize=auto;html=1;exitX=0.75;exitY=1;exitDx=0;exitDy=0;entryX=0.788;entryY=-0.015;entryDx=0;entryDy=0;entryPerimeter=0;" parent="1" source="vpVWPv_Ap4FZdGTrAKTJ-1" target="vpVWPv_Ap4FZdGTrAKTJ-15" edge="1">
          <mxGeometry relative="1" as="geometry">
            <mxPoint x="-1418" y="439" as="targetPoint" />
          </mxGeometry>
        </mxCell>
        <mxCell id="WjvY0nWv-t7K2aDvegpH-2" style="edgeStyle=orthogonalEdgeStyle;rounded=0;orthogonalLoop=1;jettySize=auto;html=1;exitX=0.25;exitY=0;exitDx=0;exitDy=0;entryX=0.47;entryY=1.026;entryDx=0;entryDy=0;entryPerimeter=0;" parent="1" source="vpVWPv_Ap4FZdGTrAKTJ-15" target="vpVWPv_Ap4FZdGTrAKTJ-2" edge="1">
          <mxGeometry relative="1" as="geometry" />
        </mxCell>
        <mxCell id="WjvY0nWv-t7K2aDvegpH-3" value="&lt;div&gt;Redireciona&lt;/div&gt;&lt;div&gt;para o Login&lt;/div&gt;" style="text;html=1;align=center;verticalAlign=middle;whiteSpace=wrap;rounded=0;" parent="1" vertex="1">
          <mxGeometry x="-1610" y="380" width="80" height="30" as="geometry" />
        </mxCell>
        <mxCell id="8XmOkfJcaXKqwVKgW7Qn-1" value="" style="group" parent="1" vertex="1" connectable="0">
          <mxGeometry x="255" y="105" width="220" height="100" as="geometry" />
        </mxCell>
        <mxCell id="8XmOkfJcaXKqwVKgW7Qn-2" value="Tela de Consulta de Feedback" style="swimlane;whiteSpace=wrap;html=1;startSize=23;" parent="8XmOkfJcaXKqwVKgW7Qn-1" vertex="1">
          <mxGeometry width="220" height="100" as="geometry">
            <mxRectangle x="320" y="260" width="140" height="30" as="alternateBounds" />
          </mxGeometry>
        </mxCell>
        <mxCell id="8XmOkfJcaXKqwVKgW7Qn-3" value="&lt;div style=&quot;line-height: 140%;&quot;&gt;&lt;div&gt;Permissão de acesso:&lt;/div&gt;&lt;div&gt;- Usr Administrador;&lt;br&gt;&lt;/div&gt;- Usr Colaborador;&lt;/div&gt;&lt;div style=&quot;line-height: 140%;&quot;&gt;- Usr Cliente (ver somente os seus)&lt;/div&gt;" style="text;html=1;align=left;verticalAlign=middle;resizable=0;points=[];autosize=1;strokeColor=none;fillColor=none;" parent="8XmOkfJcaXKqwVKgW7Qn-2" vertex="1">
          <mxGeometry x="10" y="20" width="210" height="80" as="geometry" />
        </mxCell>
        <mxCell id="8XmOkfJcaXKqwVKgW7Qn-5" value="Possibilidade de redirecionar pra a consulta de feedback" style="text;html=1;align=center;verticalAlign=middle;whiteSpace=wrap;rounded=0;" parent="1" vertex="1">
          <mxGeometry x="347" y="260" width="141" height="30" as="geometry" />
        </mxCell>
        <mxCell id="8XmOkfJcaXKqwVKgW7Qn-6" style="edgeStyle=orthogonalEdgeStyle;rounded=0;orthogonalLoop=1;jettySize=auto;html=1;exitX=0.5;exitY=0;exitDx=0;exitDy=0;entryX=0.432;entryY=1.046;entryDx=0;entryDy=0;entryPerimeter=0;" parent="1" source="vpVWPv_Ap4FZdGTrAKTJ-21" target="8XmOkfJcaXKqwVKgW7Qn-3" edge="1">
          <mxGeometry relative="1" as="geometry" />
        </mxCell>
        <mxCell id="qTFdzybzUfbGq9WCvL_k-1" value="" style="group" vertex="1" connectable="0" parent="1">
          <mxGeometry x="380" y="800" width="230" height="90" as="geometry" />
        </mxCell>
        <mxCell id="qTFdzybzUfbGq9WCvL_k-2" value="Tela de Histórico de Movimentações" style="swimlane;whiteSpace=wrap;html=1;startSize=23;" vertex="1" parent="qTFdzybzUfbGq9WCvL_k-1">
          <mxGeometry width="230" height="90" as="geometry">
            <mxRectangle x="320" y="260" width="140" height="30" as="alternateBounds" />
          </mxGeometry>
        </mxCell>
        <mxCell id="qTFdzybzUfbGq9WCvL_k-3" value="&lt;div style=&quot;line-height: 140%;&quot;&gt;&lt;div&gt;Permissão de acesso:&lt;/div&gt;&lt;div&gt;- Usr Administrador;&lt;br&gt;&lt;/div&gt;- Usr Colaborador.&lt;/div&gt;" style="text;html=1;align=left;verticalAlign=middle;resizable=0;points=[];autosize=1;strokeColor=none;fillColor=none;" vertex="1" parent="qTFdzybzUfbGq9WCvL_k-1">
          <mxGeometry x="10" y="25" width="140" height="60" as="geometry" />
        </mxCell>
        <mxCell id="qTFdzybzUfbGq9WCvL_k-4" style="edgeStyle=orthogonalEdgeStyle;rounded=0;orthogonalLoop=1;jettySize=auto;html=1;exitX=0.491;exitY=1;exitDx=0;exitDy=0;exitPerimeter=0;" edge="1" parent="1" source="vpVWPv_Ap4FZdGTrAKTJ-30" target="qTFdzybzUfbGq9WCvL_k-2">
          <mxGeometry relative="1" as="geometry" />
        </mxCell>
      </root>
    </mxGraphModel>
  </diagram>
</mxfile>
